<svg viewBox="0 0 588.69 463.28" xmlns="http://www.w3.org/2000/svg"><g fill="#fff"><path d="m188.7 244.89a87.52 87.52 0 0 1 -20.51 32.43 86.4 86.4 0 0 1 -35 21.35l96.58 96.7h-18.72v67.91h181.2v-67.91h-53.07z"/><path d="m586.21 93.66a9 9 0 0 0 -12.55-.16l-80.66 78.78-59.44-31.1-15.56-67.9 39.77-53.9 107 35.85a8.87 8.87 0 0 0 4.87.17 8.62 8.62 0 0 0 6.34-5.88 8.78 8.78 0 0 0 -5.5-11.26l-113.08-37.76a8.65 8.65 0 0 0 -10 3.08l-36.31 49-29.76 6.84 4.21 18.26-208.92 48a86.13 86.13 0 0 1 16.63 34.68 87.38 87.38 0 0 1 -.5 41l210.05-48.19 4.25 18.26 31.72-7.34v-.09l51.65 27.18a9.12 9.12 0 0 0 10.25-1.62l85.33-83.39a8.92 8.92 0 0 0 .17-12.51z"/><path d="m125.39 199.55a37.06 37.06 0 1 1 -37.15-37.14 37.08 37.08 0 0 1 37.15 37.14z"/><path d="m176.66 199.55a88.6 88.6 0 0 0 -88.42-88.41c-48.52 0-88.24 39.72-88.24 88.41a88.31 88.31 0 0 0 88.24 88.25c48.69 0 88.42-39.56 88.42-88.25zm-88.42 67.45a67.43 67.43 0 1 1 67.41-67.41 67.57 67.57 0 0 1 -67.41 67.41z"/></g></svg>