<svg viewBox="0 0 493.29 493.29" xmlns="http://www.w3.org/2000/svg"><path d="m61.66 77.08v-61.66a15.42 15.42 0 1 1 30.83 0v61.66a15.42 15.42 0 0 1 -30.83 0zm262.06 15.41a15.41 15.41 0 0 0 15.42-15.41v-61.66a15.42 15.42 0 1 0 -30.84 0v61.66a15.41 15.41 0 0 0 15.42 15.41zm169.57 277.51a123.32 123.32 0 1 1 -123.29-123.35 123.33 123.33 0 0 1 123.29 123.35zm-30.83 0a92.5 92.5 0 1 0 -92.5 92.5 92.6 92.6 0 0 0 92.5-92.5zm-339.14-185h-61.66v61.66h61.66zm-61.66 154.14h61.66v-61.67h-61.66zm92.49-92.49h61.66v-61.65h-61.66zm0 92.49h61.66v-61.67h-61.66zm-123.32 27.76v-212.75h339.17v61.66h30.8v-120.24c0-18.73-14.94-33.91-33.39-33.91h-12.86v15.42a30.83 30.83 0 1 1 -61.66 0v-15.42h-185v15.42a30.84 30.84 0 0 1 -61.67 0v-15.42h-12.81c-18.41 0-33.41 15.18-33.41 33.91v271.33c0 18.66 15 33.9 33.41 33.9h182.4v-30.8h-182.4a2.91 2.91 0 0 1 -2.58-3.06zm277.47-120.25v-61.65h-61.65v61.66zm107.91 123.35h-46.21v-46.28a15.41 15.41 0 1 0 -30.82 0v61.66a15.41 15.41 0 0 0 15.41 15.42h61.66a15.42 15.42 0 0 0 0-30.84z" fill="#bababa"/></svg>