<svg height="630.119" viewBox="0 0 1091.992 630.119" width="1091.992" xmlns="http://www.w3.org/2000/svg"><g fill="#ccc"><path d="m715.671 134.212-.303-1.21 2.269 1.059 1.134-1.135 1.588-1.588 2.345-2.344 1.437 1.739h.756l1.89-1.89 1.74-2.042 3.327-1.512 2.42 1.815-1.361 3.781v2.117l-1.588 1.588-2.496 1.135-2.722 1.059h-2.722l-2.042 2.042-3.252-1.135-1.664-2.42z"/><path d="m710.074 137.389h-4.84l-1.588 1.588-2.496 1.739-1.815-1.815-4.386 1.361.303 2.723 1.135 1.135 1.663 1.663 1.135 1.134-1.664 1.362-2.269-1.966-1.21 1.209-1.664-1.664-3.781.757-1.664-.907-.756 1.966 1.21 1.209-2.269 1.211v2.873l1.816 1.815-.455 2.118h1.664l2.118 2.118-.606 2.42 2.723 1.361 3.63.151 1.513 1.512h2.722l3.176-.907v-2.42l-1.966-1.815 1.059-1.059 1.588 1.588 2.798-5.066 2.647-2.647 1.135 1.134 2.42-2.42.755-2.269-2.722-.907-1.815 1.815-2.268-1.664-2.723-1.664-2.723-1.966.908-1.966 1.437-1.437 1.134 3.856 1.739 1.74 2.949.529 1.816-.756h1.513l1.511-1.512-.756-3.177h-2.419l.605-2.722v-1.966z"/><path d="m712.646 164.009-1.362 1.21 1.059 3.025 1.74 1.74 1.437-2.799v-2.268l-1.059-1.059z"/><path d="m718.847 166.731-1.74 1.74.984 2.344 1.664 1.664-1.06 2.42.909.908 1.361-2.874 3.478-.757 3.026-1.21 4.083-2.42-2.117-3.932h-2.874l-4.084-1.362-1.891 1.74z"/><path d="m684.815 160.227-1.361-1.361-2.42-.151 1.589 1.588.982 3.554h1.966v-1.966z"/><path d="m609.188 219.064-2.797 2.798v1.89h2.343l.757 1.815 1.966-.907 2.27-2.269v-3.63h-2.874z"/><path d="m707.798 112.583-.907 1.664.983.983 1.135-.983z"/><path d="m699.328 178.68-2.874-.605-.907.756 1.664.756 2.117 1.664.907-1.21z"/><path d="m577.419 181.252-.606.908 1.362.907.604-1.059z"/><path d="m570.915 167.791-1.513.907 2.118 1.059 1.512 1.058 1.664-.453-.454-1.966-1.664.453z"/><path d="m556.092 160.379v-2.117l.151-3.782-1.058-2.117-1.513.151-2.117 2.571.151 2.269-.908 1.513.605 4.084-1.815 1.815.151 4.083-.907 3.479-.757 3.479 1.362.756 2.874-2.269 1.664-1.058 3.781-1.966 3.025-.303 3.782-2.874 1.814-3.479-1.21-3.025-1.361-2.269-1.815.757-1.815-3.177-1.362-1.361-1.664 1.966z"/><path d="m542.479 144.195-1.361 1.664-1.21 2.269-1.059-.454.756-2.874v-3.025l-3.327 1.059s-1.966.454-2.42.605-2.723.908-2.723.908l-1.059 2.269-.605 1.966-1.361 1.664.454 1.966-2.571 1.966 1.21 1.059 1.814-.605 1.513 2.117.151 1.966 1.361 1.664 3.479.302.454 1.966 2.42-1.512 1.21 1.966 3.327 1.21 3.177-1.513 1.513-2.118-1.21-2.42-1.967-2.723 1.513-1.059.605-2.571-.757-2.874.303-2.874z"/><path d="m539.757 190.479-1.513 1.814-1.966.454 1.815 1.361 1.815-1.815z"/><path d="m514.498 189.874-.756 1.209 1.058.908 1.362-1.967z"/><path d="m498.919 231.316-1.815.908s.756 2.269.756 1.966 1.361-.605 1.361-.605z"/><path d="m485.912 217.704-1.664 1.36.907 1.816 1.512-.303z"/><path d="m485.306 237.518-.302 1.663h2.571l1.362 1.361.151-2.269-1.513-.302z"/><path d="m476.534 147.825-.908.908 1.059.605 1.664 1.21.454-1.513z"/><path d="m467.308 253.247-1.059 1.361.605 1.815 1.059 1.362 1.512-1.664.605-1.966-1.361-1.362z"/><path d="m459.594 258.39-1.664 1.664-1.815 1.512 1.664 1.21 1.361-1.21h2.118l1.966-1.815-1.815-1.815z"/><path d="m454.149 241.601-1.361 1.21.907 1.361 1.815-1.21 2.269.605-.605-1.361z"/><path d="m447.191 247.651-.756 1.966 1.21 1.059 1.361-1.664z"/><path d="m431.009 237.82-1.664 1.21.605 1.362-1.21 1.663.302 1.059 2.723.756 2.571-1.21 1.513.152v-1.513l-2.42-.605 1.21-1.361-1.362-1.966-1.663.605z"/><path d="m365.365 261.717-2.42 1.21-1.815.605.454 3.933.302 2.118 1.664.453.605 3.176 3.177.303 1.058-2.571-1.513-2.571.152-2.874z"/><path d="m311.822 248.559-3.327.907-1.967 2.572-1.512 1.966 1.058 2.873 2.421.908 2.268.907 2.118-1.512 2.571.454 1.361-3.176-2.117-2.723-.152-2.269z"/><path d="m213.811 250.676-.605.907 1.059 1.362 1.361-1.362z"/><path d="m354.776 252.794h-1.664l-1.815-2.723-1.058.605-3.176-3.025-2.421-2.571.908-2.723 2.42-.756.907-1.512-1.664-1.361.152-3.631-1.059-.302-1.059-2.723-2.268-.151-1.815-2.571.605-3.328 2.419-3.327 2.875.302.907 1.059 1.058.454.454-1.967 3.479-1.058 2.723-2.874-1.815-1.966 2.42-1.513 2.722 1.059.757-2.269v-2.269h3.478l1.664 1.664 1.739-1.739.378-1.588 3.782-.757-1.286-1.285-3.252-1.135v-1.209l3.782-1.06 3.932-1.058 1.966-1.966h2.571v-1.815l3.631-.152-1.966-1.966 3.176-.151 1.21 1.21-.152-3.025 1.513-1.513-1.664-1.966 1.059-1.664 1.815 1.815h2.269v-2.269l3.327 1.21 1.664-1.815 1.664-1.966h2.118l3.629-1.663 2.572.907h3.781l2.496-2.496 2.949.227 1.361 1.967h3.176l1.513 1.512 2.723-.757h3.781l2.496-2.495 2.949-1.588 3.932-1.513h3.63l2.118 3.328v3.63l-3.176 2.874-2.874 2.722-3.781.303-4.538 2.117-4.084-1.512-1.966 1.966-4.689-.151h-6.05l-2.269 2.42h-4.688l-3.479 1.966 1.059 2.42-2.421.907-2.873-.302h-2.571l-.303 1.664-2.722-.757v2.723l-2.723 1.966-2.269 1.664v-2.571l-1.815 1.664.454 3.025h-1.815l-1.286-1.286v1.437 2.269l-1.323-1.324-1.701 1.701-1.438 1.438h-1.967l-1.512 1.966-1.966 3.327h-3.176l-2.572 2.118v2.874l-2.571 1.059-.908 3.025-2.117 2.117v3.782l-1.059 2.722 1.361 3.932-1.21 3.933 1.664 2.571.756 2.723-.907.908-2.571 1.21v-1.967z"/><path d="m489.25 128.245-1.25.25-.812.812 1.25 1.25 1.687-.562 1-1z"/><path d="m517.875 125.745-1.125 1.125.875.875.938.937 1.937-1.812v-1.25z"/><path d="m529.875 124.12-.375 2.5-2.25 1-3.375 2.25v3.125l1.375 1.375-1.812 1.812-1.188 2.313 1.625 2.25.625 2.25 2.875 2.5 2.625-2.5h1.75l2.625-1.5 3.125-1-.875-3v-3.75l1.875-1.625-1.562-1.563-3.188-3.187-1.125-2.5z"/><path d="m522.5 144.87-2.125-.25.375 2.75v1.75l2.75.75 1.125 1.125 1.688-1.688.937-2.437-1.625-1.25z"/><path d="m489.125 208.87-.812.812 1.062.938 1.75-.5z"/><path d="m451.125 104.12-1.25.375 1 1.375v1.25h1.75v-2.375z"/><path d="m450.75 114.745-.875 1.375-3.25.625-2.125 1.125 1.625.75-.75 1.75 1.375.375h2.75l2.188-2.188 1.625-1.625-.563-2.437z"/><path d="m440.375 112.495-.687.687 1.312 1.313 2.375-.875v-2h-1.375z"/><path d="m438.563 116.432-1.813-2.062-1.375 1.375-1 2v2.5l2.125.375.5 1.5 2.625-.625 1.688-1.688 1.25-1.25.687-2.062h-1.875z"/><path d="m431.125 125.12-.812.812v1.563h1.687l.625-2z"/><path d="m427.625 118.745-.875-.875h-2.75v1.875l-1.5 1.5.875.875 3-.625 1.125 1.125 2.625-.625.75-1.75 1.875.625-1-2.25-1.687-1.688z"/><path d="m441.5 97.87-.75 1.5 1.313 1.312 1.25-1.25z"/><path d="m438.75 101.37h-2v2.25l2.125 2.125v1.75l1.875-.875-1.125-2.375z"/><path d="m426.25 107.87h-1.75l-.375.375 1.438 1.437z"/><path d="m427.75 110.745-1.187 1.187 1.187 1.313 1.375-.125z"/><path d="m428.875 105.245v1.625h1.75l-.375-1.875z"/><path d="m431.313 109.307v1.438h1.437l-1.125-1.125z"/><path d="m432.75 112.62.625.625 1.125-1.125z"/><path d="m434.5 105.995v1.75l1.5.125v-1.875z"/><path d="m432.25 102.495.875 1.625.813-.813-.813-.812z"/><path d="m416.125 112.995-.937.937 1.625 1.625 1.812.063v-3l-1.25-1.625z"/><path d="m420.25 110.995.625 1.75h1.25v-1.5z"/><path d="m413.25 100.995-1.25 1.25v1.375l-1.437 1.437-2.563-1.812-2.125 1.125v1.5l-2.625-1.875-2 .75.625 3 1.875-.625v2l2 .5 1.813-1.813 2.562-1.062 2.125.625h3.125l2.25-2.25-2.125-2.125 1.438-1.438-2.438-1.437z"/><path d="m406.125 97.87h-2.75l-1.625-1.625-1.125 2.25 1.438 1.437.562 1.688 3.25-1.125 1.125 1.125 2.125-.875.875.875v-1.875l-1.437-1.438h-1.313z"/><path d="m408.563 111.057h-1.063l.375 1.563 2.25.125z"/><path d="m409 114.37-1.125 1.125.875.875 2.125.5-1.375-1.375z"/><path d="m418.125 98.245v1.625h1.25l1.25-1.25z"/><path d="m857.333 70.12 1.333-4.833 5.084-4.917 5.666-5.667 2.584-2.583 5-2.167 3.582-2.083 3.334-3.333 3.417-3.417 4.167-1.667 3-4.333 5.666-1.667 3-3.167 3.667-1.667 2.333-1.333 2.667 2.667 3.833-1.167 3.417 2.583 2.25-2.25 4-2.167v-2l-4 .833-4.667-.333-3-.833 1-3 3.167-2.167-2.667-.667v-1.5l1.834.168.333-3 1.667-2.333 2.333-2.333 4-1.5h1.167l3-4.167s2.833-.833 3.833-1.833 0 2.833 0 2.833l2.167 1.833 1.666 1.667-1.833 3.833s2.5 0 3.5-1 0 2 0 2v3.5l-3.833 2.5 3 .5 1.833-1.833 3.917 1.5v-1.75l3.083 3.083 2.167 3.334 1.833-.5 1.833-2.333v2.167l1.167 2.667h-3.5v1.333l2.833.833-1.5 4.333-3.833.333-3.5 3.833-1.833 4-3.5 1.167-2.5-1h-3.167l-2.833 4.167 1.25 2.5v4.25l-2.75 2.75-2.167-1.667-2.167 1.667h-3.166l-1.834-1.5-1.666-1-.25 1.583 1.25 1.25-1.5.667-1 1 2.916.5v2.25l2.25 2.25 3.667-1h2.5l.166 3.167 1.5-1.5 2.584 2.584 2.75 2.75 1.333 4.833.667 3.833-2.667 4.333h-2.5l-3.5 1.5-1.166 2.666 2.833-1.167h1.833l-2.666 3.168 1.666 1.666 2.167-.833v-3.167l2-1.5 3.583-.083 2.084-2.083 1-1.667 2.5.167 2-.333 3.666-.167v2.333h3l.834-1.583h2.916l1.75-1.75 2.167-.333 1.833 1.5 2.667-2 1.25 2.917 2.417 2.417v3.5l-3.334 1.333-2.166 4.665h-3.5l-1 1.5 3.916 2.583-1.25 1.25 2.834 4.334 1.166 5.333v6l1 4.667 1.667 4 .834 5.333 1.666 5.167 3.167 2.833v4.833l1.667 6.667 2.833 3.167 1.833 1.833-2.833 2.5-3-1.5-4.167 1.333-2.166 5-3.5 5 1.833 1.834-1.333 4.667v2.5l2.833 4.333v2.667l-3.167-1.5-2.333-2.334-2 .167 1.833 4.833v3.167l3.083 1.417-3.083 3.083h-2v4.333l-1.833 1.833 2.5 4.167 2 2 2.333 2.333 3.167 3.167.666 4.667.5 3.667 4.584 2.416 2.75 2.75h4.666l-1.25-2.833v-1.417l1.584-1.583 1.167-2.5 4.333 4.333.833 3.833 4.333 3 4.292.958 1.708-1.708h2.75l3.25 3.25-1.333 3.167-3.333 1 1 4 3.5 5.833 3.083.75 2.417 2.417 5.666-.667 3.334 2.667 1.166 3-2 1.333-2.833 1.833-1.667 3.667 1.167 6.667 3.333 5.167 2.917 1.083 1.417 1.417 4.833 1.167v2l-3.667.5v3l-1.333 3 1.667 6 2.832 1.167 4.334 4.333 3.167 3 .667 5.333 1.666 7 .834 4.5v3.333l-1.834-2.5h-4.833l-3.083-1.583-2.417-2.417h-3.333l-3-3-5.834-2.667-5.5-2.333-6.333-3.333-1.833-2.5-3-2-3.334-.667-7.166-2.167-4.667-2.5-4.5-3-2.167-4-4.833-4.833-3.333-3.5-.001-3.5-2.333-2.333-.5-3.833-2.833-4-3.084-.667v-1.417l1.417-1.417 1.167-2.5-1.583-2.75 1.5-1.5 1.25-1.25-1.667-5-.833-5.333-2-6.167-3.167-4.167-1.333-5.5-1.5-5.167-1.667-4.167-2-6.167-2-1.667-.167-3.333 1.167-4v-2.333-2.833l-2-2-2.167-4.167h-2.166l-2.084-.75-1.916-1.917-2.334-3-3.5-2.167v-3.833l3.167-2.999-1.084-1.084-2.583 2.583-3.666 2v3.5l-1 2.667 1.999 1.833 2.917 2.917 2.75 2.75h3.334l-.334 2.167-1.5-.167-1.583 2.25 2.083 2.083v5.333l1.667 4 .333 6.333-1.166 3.836-1.334-3.333-3-1.5.001 4.167-2.5-2.5-1.667-1.667-1.334-2.833-4.666-4.333 1.333 3.667-1.333 4h-4.5v2.667l-1.5 5.5-1.834 2.167.167 7.333 3 2-.5 4.667 3 4.667v5l.917 6.583 2.75 2.75v3l2.333 2.333 2.167-.333 1.916-1.75 1.417-1.417h2.5l-.167 3.167-2.666.833v4.5l-5 .833 1.166 5.833-.5 2.5-3.166 1.332v3.5l-1.167 3.167s-3.917.917-3.167.167-1.5-1.5-1.5-1.5v-2.167l.667-2.167 2.75-.917-1.25-1.25-3 1.167-3.167.5v1.5l-4.666 2.167-2.334 2.833-2.666.667-2.167 2.167-.833 2.5.832 3.167 1.834 1.833-2.166 2.333-3.5-1.333 1.083 3.583-2.583 2.583-2.334 2.167h-2l-2 1.833 1.334 2.167 1 1-2.834 1.833h-3.833l-3.75 3.75-2.417 2.417-2.667 4.5-2.833 2.833-2.833 5.667-.5 5.5 2.667 5.333-2.5 2.5-.833 5.333 1.499 3.833 2.334 2.333-2 3.333v4.5 6l-1 4.167v5.667l1.667 1.833v4 4.5l-1.5 5.667v4.667l-2.5 4.167v4.166l-1.334 3.667 1.5 3.375h2.542l1.958-1.958h2.749l2.168-2.168 2.416-2.416 1.667 1.667 2 1v2.167l1.584 2.916 2 2 1.75-1.75v-2.666l-2.334-1v-2.5l1.834-2v1.666l2 1.5 1-.333 1 1v3 2.167l3.333-1.333v-1.666l1.833-2.5 1.167-1 1.833 1.333.417-2.75-1.583-1.583-1.5-2.834-1.834-3.333 3-1.666 1.834-1.834 3.666-.833h4.334l3.583.417 1.583 1.583s3.834-.667 4.667-.667 3.166-1.001 3.166-1.001l2.084 2.084-1.584 1.584-1.166 1.166-1 1.834h2.833 3l.667 2.166 2.5 2.5 3.084-.416 1.583 1.583 1.666 3.167.5 6.333 2.167 6.667 3.416 4.916 4.25 4.25 1.667 1.668.833 2.832 3.334 3.334 2.333 4 .834 2.334 3.083 4.75 2.583 2.582v7l-1 6 1.834 6-.167 6.166 1.833 4.834 1.333 5.334 1 4.832 1 6.5v6.334l-1 3.334v6.5 8l-1 6 1 6.166-.333 8v3.834l-3.333 5.5-2.167 4.666-2.5 4.668h-2.167l-4.166 1.665-3.5 2-2.417-1v-2.25l-1.25-1.25-1.251 2.834v3.082l-1.416-1.416-2.166-2.166v1.666l-.667 4.166.667 2.834-.917 3.25-1.417 1.416v1.668 2.666l-3.166-.166-1.334-1.334 1.167-3.834 2-4v-3.332l-1.75-3.918-3.583-3.582-1.834-1.834-1.5-3.834-3.166-3.166-3-1-.084-3.25 2.084-2.084 1.833-1.832v-3.334l2.333-2.334 2.667-1.332 2.751.916 2.416-2.416 1.5-3-2.667-4.168 1.333-3.5-1.666-3.666-.334-3.834-2.333-3.166.667-2.666-1.834-3.168-.833-3.666-3.333-3.5 2.5-2.5v-3.668l-2.083-2.082-2.417-2.418-.667-2.166h-2.833l-4 2.166-1 3.334-2.667 4.334-3 3.832 1.334 4.168-3.5 2.832-3.5 2-3 1-.834 3h-3.166l-3.167-1.832-2.333-.834v-3.834l-2.667-2.332-2.167-2.168-3.583-.916-1.917 1.916-3.833-1-3.167-.832-4.833.666h-4.5l-1.833 1.834-5 1.832-5-1-2.083-4.082-2.417-2.418s-2.833-1.666-2.833-2.334-3.167-3.166-3.167-3.166l-4-.666-1.667-4-3.834-3-2.666-2.666-3.667-1-1.333-3.5-3.334-1.5-2-2-6.666-.668h-3.5l-4 2.168-5-.834-3.834 1.334h-4.166l-5.668 4.166-2.666 2.666-5.25 3.084-2.583 2.584-1.833 5.5-1.334 3.332 1.834 2.334 2.583-2.084 2.083 2.084 2.334 2.334 1.333 5.332-1.333 2.834-1 7.166v4.5l-1.834 4.668 2.5 4.832 1.5 1.5v4.668l-3.5 1-2.25 5.25-3.25 3.25-5.5 2-6.166-.5-4.5-.834-3.333 2-4.667 2.666-3.5-1.832-3.167-1.168-4.166 1.834-3.5 3.5-2.5 2.5-1.417 4.916-2.917 2.918-3.833 2.666-5.333 2.5-4.084 4.084-2.083 2.082h-5.333l-4.834 1.5h-6.833l-5 .668-4.5-1.5-1.334-2.5-2.333-2.334h-6.333l-5.833-.834-2.334-1.5-7.666 1.084h-4.751l-3.916 3.916-4.333 1-4.167 1.168-6-.5-4.082-1.75-2.584-2.584-2.416-5.084-3.084-3.082-4.334-1.666h-4.166l-4.75 1.248-3.25-3.248h-6.5l-3.834-2.834-1.917 1.916-2.583 2.584-2.083 4.25-2.25 2.25-.667 4.334 2.084 2.5v3.748l2.916 2.918v4l-3.916 2.584-3.75 3.75h-3.167-4.833l-4.5-1.168-4.667.834-3.333-1-4.834-1.668-2.666-2.666-3.167-3.166-3.833-1.166-4.5 1.832-2.834-2.834-3.583-1.582-2.917 2.916h-3.666l-1.167 3.5h-4.333l-5.5 3.5-3.334 3.334h-3.333l-.667 3.5-3.916.916-2.75 2.75-5-.166-4.167 2.332-2.167 2.168-4.833-.834-1.5-2.5-1.833-3.334-.917-3.416-2.583 2.584-4.333 1.666-4-1.334-4.5-1.166v-4l-3.5-2.166-1.333-3-2.833-1.834-.667-4-2.333-2.166-3.125-1.375-2.042-2.041h-4.25l-2.083 2.082-4.167.668-1.668-1.668-3.666.666-2-2-1.833-1.832v-2.5l-1.833-2.166-2.668.832-1.833 3.834-3.667.666-2.167-4.332-1.167-3.834-.833-4.334-2.833-5v-4l-2.667-2.5v-5.5l-2-6.666-2.833-2.834-1.833-1.832-1.917-4.084-2.083-2.084-2.833-1.166v-3h2.333l2-2.666-.833-2.334h-3l-2.5 2.5-3.5.166-2.583.084-2.75 2.75-4.667 1.334-4 2.166-1.834-2.666-3.5 1.666h-2.833l1-4.5 4-1.834v-2.332h-3.333l-3-1.834-1.833 1.834-3.333-1 1.083-3.918-2.417-2.416-3.333 2-3.667-1-.917-2.916 2.084-2.084v-3.166l.833-2.334-1.333-4.166-2.5-1.168h-3l-1.5-3h-4.167l-3.333-2-3.667-.334-2 2.834h-4.167l-3.667 1-3-1.666-3.667.666h-4.5l-4.333-2.25h-1.75l-1.917 1.916-3.333.668-3.167-1.668h-2.833l-3.833-1.166-5.667.166-4.167-.832-3 .832-2.667-2.332-3.833-2h-3.5l-1.167 3.666 1.167 2.5-2.333 2.334 1.833 1.166 1.833 1.834 2.25 2.25-2.083 2.082h-2.333l-2.833-2.832-4.333.166-2.833 1.166 1.167 4.168-1.167 3-2.833.832-3.333-.832-1.333 3.5 1.083 2.416 2.333 2.334 1.583 1.582.667 2.834 2.333 2.334-2.333 3.166-2.167 2.166h-3.667l-3.75.25-1.917-1.916-1.333-2.709h-1.708l-1.792 1.793h-2.917l-3.25-3.25-.625-1.875-2.458-2.459v-4.25l-2.084-2.084h-3.833l-3.167 1.168-1.167-2.5-3.167-2.5-2.833-1.5-3.833 1.834-3.5.5-2.833-.834-2-3.834-2.833-2.5-2 3.334h-2.167v-2.666l2-2-1.333-2.834-1.667-4.334-.667-4.5-2.5-3-4-1.5-1.166-2.832-2.167-2.168-4 .668h-2.333v-3.168l-1.167-3.332-4.083-.752-2.083 2.084-3.833 1.334-3.333-1.834h-3.5l-1.667 2.5h-3.5-3.833l-.835 1.834-2.167 2.166-.333 3.166-4.083-.748-2.417-2.418v-3.334l1.084-3.25-1.75-1.75h-2.834l-1.167 2.668-2.167 1.582h-3.25l-2.583 2.584-2.167 2.166v3l-2.833 1.168-3-.168-2.167 2.168-2.667 1.832 1.083 3.25 2.417 2.418-1 4.332-2.167 2.168 2.167 1.332 3.167 3 2 2-.833 4.334.917 5.666v4.584l-1.75 1.75-1.667-1.834-2.5-.332.333 3 1.417 2.916 2.083 2.084-1.667 1.666-2.833.334h-2.333-1.833-1.5s-2 .25-3.583.25-1.25-1.25-1.25-1.25l-2.5-.668-1.166-1.166-3-.5v2.334l-2.333 1-2.833 3.332h-3.167l-3.5 1-2.042-.541-1.708 1.709v2.75l1.75 1.75 1 3.166-.833 3.166-.75 2.918-1.917 1.916v1.166l-1.667 1.5-3.667 6v4.668l1 5.666-.667 4.334.333 5.332-4 1.834-2.667-1.166-3.833 1.332-3.667-.832-.5-3.168-1.833-5.5-.333-4-2.667-1.832v-2.168l-1.333-3.5-2.333-3 1.5-2.5 1-2.832-2.5-2.668-.833-3-2.833-.332-.583-1.75-2.085-2.084-3.667-.5-2.333-2.334-.667-5.332-2.333-2.168.667-3.332-2.833-2.334-1.5-3.832-2.5-1.168-3.667-2.5-1.167-4-2.5-3.832-.833-3.334-1.833-.334-1.333-1.666-1.667-2.334-2.167.334-1.333-4 .5-7.666-.667-5.668-1.333-2.832-1.667-2.5.333-5-2-1.834-1.333-2.666 1-3-.833-3.334 1.833-1.834 2-.332 2.667 3.332 2.5.834 1.167-2.5 2.833-1.166 3.833-.168h2l2.5.834.5-4.166-1.333-2.5.667-2.168 2 .334 1.833 1.334 2 1.832 1.5-1.5 2.333 1 3.833.5 2.833 1.168.667-3-2-1.5-2.833-.668-1.833-1.832-2-.668 2.5-2.666 3.666-1.666 3.167 1.332 2.833-1.166 2.667 2.834 4 4.332 3.667-3.666 2.5-1.5-.667-3.668 2.333-2.332 2.333.334-.167-2.668 6.167-.832 1.167-2.834 1.333-1.666-2.833-1.334v-3.5l-2.667-3-1-3.834-2.5-1.5-2.667-3 1-3.5-1-5.167-3.166-2.332-3.667-2.833-1.167-3.834-2.5-2-.833-2.333 2.167-2.5 1.667-3.667v-3.5l-1.833-3.333-1.833-2.833 1.667-1.333 1-2.5h2l1.5-1.333 1.167-4.5.333-2.667-1.334-3.333-1.834-1.834-2.5-.333-1.833-2-1.5-2.167-2.25 1.916-1.75-1.75-1.5-2.5 1.5-2.667 3.167-3.167 2.167-2.5.833-3 2.5-.167 1.833 2 1 2.5 3.333 1.168 3.167-1 .833-3.333 1-3.667-2.5-2.5 1.667-1.167-.167-2.833 1-4 1.833-4.333 1.333-3.667 3.333-1 1.167-2.5 3.167-2.667v-5.667l-2.833-2.666-3.167-.833 1-2.5.833-2.667-2.333-2.333-1.5-3.333.5-2.333 3.167-3.167 1.833-3.333-.833-3 2.667-.667 4-2.5v-3.5l1.667-2 4.166-.167 1.833-2.167.167-2.5 3.5-1.333 2.833-3.833 3.833.167 3.333-2 4.5 1 .667-2.5 1.5-1.5 2.833 1.333 2.333 2.5 3.668 1.166 1.333 3 1.333 3.333 2-2-.333-4.833-3-2.667v-5.667l2.667-.666.833-.833-3.667-1.5-2.167-2.5 37.333-.167 7-2.5v-4.333l1.167-11h4.667l4-3.167v-4.333l3-1.167v-5.667l2.667-.167 5.833-4.667 2.833 1.333 6.167-11.5.417-3.083 5.083-5.083h8.5l2.667-4.667v-9l5.333-2.667 7-3.5 4.833 1.833h2.834l2.333 2.333 2.862-1.994-.696 3.494 2.833-.333 4 .167v2.667l.833 3-1.833-1.167-1.917-1.917-1.75 1.75.833 3.167v3.167l2.833 1.5 2.167 2.167v3.5l2.417 1.167v3.917l2.75 2.75 1.333 4.667v4.833l-.833 4.167 1 2.333.083 5.083 2.917 2.917-.167 3.667-.667 6-2.917 5.083-4.417 4.417h-4.667l-5.167 1-4.5-1.667-4.917-2.75-3.079-3.084v-4.5l-3.167-3.167-1.5-3.5-1.167-3.333-2.166-3.666-1.167-6.167-2.333-1 .75-3.75 1.917-1.917-2.333-2.333-1.083 2.917-1.583 1.583.667 3.667.083 4.25-1.833 1.833 2.417 2.417-.667 3.667-2.333 5.167-4.083 1.25-3.25 3.25-1.25 5.917-3.083 3.083 1 3.5 1.5 4.333-2.417 4.25 3.417 3.417 3.664 3.666 4.167-3 .833-4.166-2.167-2.167.333-3.667v-2.833l2.833-3h2.833l1 7.5.917 4.917 2.917 2.917 1.833 3.833 4.75 1.417 1.417-1.417-1.167-2.833 2.833-2.333.167-5.833 5.167.833 4.833-1.833 4 2.167 4.5-1.417h3.083l1.918 1.915 2.833 4.333-2.333 2.333v3.667l2.083-2.583 2.917-2.917 4-.833 3.333-4.833v-4.167l1.333-2.833 4.333-2.167v-2.667l4.167-2.5v-4.167l-.667-4h2.833l.917 2.083 3.75 3.75 2.833 4.333v5.833l-1 3-1.5 1.5-2.5-2.5-3.5-.833-5.333 1.833v4.333l1.333 4v3.333l3.833 1 3.667 1.667 4.167-2v-3l4.333-1 4.167 2-.667-2.667 6.5 1.167 3.5-.667 6.333.833h3.667l1.833 3.333h1.667v-3l5.333-1.667h2.835l1.167 4.333h-3.167l-1 3-2.5.833 3.833 3.5h2.667l5-2.167 4.75.917 5.167 5.167 1.75-1.75h3.5l4.417-1.417 1.75 1.75-.5 2.333-2.667 1.833v2.833l3.167 2.667.25-3.083 1.417-1.417 3.333.833v-2.667l3.167-.5.667-4-.5-4.833 3-1.5 2.583-.75 3.083 3.083 1.333-1.333 3.417 4.25 3.917 3.917 3.167 3.167 2.083 4.25 3.917 3.917 2.667 4.167 2.833 3.833v3.333l2.332 3.671 3.333-2v-3.5l3.833-3.5-2.667-.833-1.833-4.333.667-4.667-3.167-2.167-1.75-3.583 1.583-1.583 3.333-1.667v-2.667l.833-4 1.5-2v-2.5l-2.167-.667 1.167-3.333 1.833-2.333 3.333-1.167 3.583-1.75 1.25-1.25 2.833-2.833 2.167-4.833 1.667-4 1.833-4 3.167-1.667 2 2.833h4l2 2h3.5l1.5 5.667-1.667 1.667-.75 6.083-4.75 4.75-1.333 4.333 2.833 2.5-1 5.667-.833 4.5-3.333 5-1.167 7.167-1.833 6.333-1.333 3.167 1.25 4.417 2.917 2.917-.5 2.667-3.667 2.833-.667 6.167-3.667 1-4.333 4.333-2.5 3.667-2.333 1.333-4.167-.833-2.5 1.667-2.75-1.75-1.75-1.75-2.5-.833v3.167l2.5 3.833 2.5 1.167 3.333 2.333 2.833-.167 2 2.833h3s1.25-2.25.583-2.917 1.75-1.75 1.75-1.75h2.167l1-1 4.167-1.167 3.333-1.833v-3.5l1.5-1.5 2.583-2.583 2.083-2.083 1-4-.833-3.5-.333-3.167 2.25-2.25 2.25-2.25h3.5l3.833-.5 1.083 3.25 1.583 1.583 2 5.167-2.663 2.665.167 4v2.5l3.333 3.333 3.833.833v-2.333l-3.75-1.083-1.417-1.417v-2l-.333-3 2.667-.833 1-2.167-1-3.167 1.167-2.667-1.667-3.333-2.167-2-1.333-1.333-4.083-1.417-2.333-2.333-1.917 1.917-2.5 1.167-1.333-1.833h-3l-.5-3.167 2-2-.5-5.333 2.333-3.667 1.5-4.333 3.333-3.333-1.167-3.667-1-3.167.417-3.416-2.417-2.417 2.667-2.667 4.167-4.167h3.5l2-3.167 1.333-3.5-1.167-2.833 1.167-2.5h2.667l-.833 3.5v4.833l-.667 4.333-3 3v4.167 3l3.5 2.667 2 1.667 2.583-1.583 2.583 2.583 2.833 2.667v-2l-1.083-2.583-1.917-1.917-3-1.5v-1.333l-2.5-2.5-1.166-3.668 3.5-2.333 1.667 1.667 2.667 2.667 2-1.833-.667-2.167-.25-1.917 1.917-1.917 3.333.667 2.75-.417 2.25 2.25 4.333 2.333-1.167 3.333 1.083 1.083 2.917 2.917h4.5l.667-2.667-1.833-2.5.167-2.333-3.167-1.167-2.333-3.833-1.334-1.333 1-4 1.5-3.333-1.333-1.333-.833-4.167 3.333-3h7.833l4 1.5v-1h6.5l4.333-1.833h3.166l1.667-1.667-1.667-2.5-2-.667-1.667-1.667s.667-.667 1.917-1.917 1.25 1.25 1.25 1.25l2-.5-1.333-1.5.917-2.083-1.417-1.417 1.667-2.333 2.333-1.833-2.333-.167-.167-2.5 4.667.167 1.833-3.833 4.583-1.75 1.75-1.75 6.25-.917 1.583-1.583 4.5-1.333 1-1.167-3-1 1.667-1.667 4.333-1 3.667-.5.833-1.833 3-.5-1.583 3v2.417l2.083-2.083 5.168.166.5-2.667 3.333-.667 3.333.667-1.5-2-2-1.5-1-1.833h3.667l3.833-1.167h1.167l-.333-2.833-1.334-1v-4l.834-2.667 2.5-6.167 3-2.167 2.666-2.833 3.334 2 2.5-.333.75 3.417-2.584 2.583-2.166 2.833 5.291.292 1.042-1.042h3.25l2.417 2.417-2.167 2.167s-.167 2.167.833 2.167 3.667 1.167 3.667 1.167l.833-2.833-1.5-1.5 3.667-2h3.333l3.417-2.417 1.917 1.917 2.583-1.25 1.917 1.917 1.666 3.333 2 1.667 1.167-1.333 1.75 1.75 2.25 2.25-.333 3.5-3.334-.667 1.334 1.333 3.333 1.833 2.083 3.583-1.916 1.916v3.333l-1.667 2.333-1.583 3.25-1.917 1.917-3.333 4v1.667l-1 4.667-2.5 2.5-1 5.167-4 1-1.25 3.75-2.75 2.75-.667 4.333-.833 3 3-1.333-.667-3.333 3-1.833s2.667-.833 4.167-.833 2-3 2-3l2.833-2.333 2.667-1 1.583-3.083-1.25-1.25-2-.167.167-1.335-.167-2.667 2.5-.167h2l2.833.667 3.334 1.333.666-2 2.084-2.917 1.75 1.75v3.333l2 2.833h2.333l-2.333-2.165 1.583-1.583 3.083-3.083 4.167-2.167 6.333-1.167 5-1.5 1.251 1.917-1.167 1.167 2.75 2.75h5.166l.167-1.333.5-1.833 2 3.167 3.5-1.333 3.5-3s3.667-.667 4.5-.667 0-3 0-3l-.5-3.333-2.5-3.833.667-3.833.5-2 2 2 2.083-1.583 1.75 1.75 2.667 1.833.666-2 1.334-.336 1.333 1.5 1.333-1s-.166-3.083 1.084-3.083 1.583-1.583 1.583-1.583l3.667 2.833 1.166-1.167 4 1.333-1.333 4.083h1.916l1.917 1.917v3.167l3.167-2 1.667 1.667v3.667l-2.167.667-1.333 1.332 2.333 2.333s1.833-.833 1.833-1.667 1.5 1.5 1.5 1.5v2.667l3.417-.084 3.25 3.25 2.5 1.667 3.5.667 1.5-1.5 3.833 2 .334-3.166-1.667-5.5-1-2.5v-2.333l-2.167-2.167v-3l4.167.5 2.333 2.333 3.667-1h4.167l-.834-4.333 2.334-4.333 4.333-1 3.167-.167 3.666 1v-2.5l-3.916-1.75 1.416-1.417 1.834-2 3.166.167 2.5-2.5-1.166-.667-2.5-2.5-2.834-1.5v-3.667l-1.166-1-1.667 4.333-2-1.333v-3.5l3.667-3.333-.5-2.333-3.5-2.167 2.166-2.167h3.167l4.667-2.333 1.333-3.833 6.167-2.333 4.833-2.167s.667.667.667 1.667-3.167 2.167-3.167 2.167l-1.167 4.5 2.834-1.334 2.5-2.5 3.166 1-.833 6.5 2.833-2.667v-3.167l-1-5.333.667-2.333 1.5-4.167 3.5-1.667 5-2.167 3 2.167s-1.417 1.917-2.5 3 1.167 1.834 1.167 1.834h3.666l2.334-2.667s2.666 2.833 3.166 3.333-.5-3.833-.5-3.833l4.5-2.5 3.167 1.667 3.5-.166 3.167-3.167 3.333-4.167v-4.833l4.167-6.167 3.5-3.5 3.166-3.833 5.5-.833 4.584-.25 2.25 2.25 4.666 4.667 4.167-1.833 3-2.417h3.25l-1.583-1.584v-2.334l3.166-3.166v-5.5l1.5-2.833h2.5l2.167-2.167v-3.333l4.167-3 1-4-1.667-1.667.667-2-2.333-3.333 1.833-3.334 1.75-1.75 3.167 3.167-2.417 2.417 2.5 2.5h3.833l2.667-1 3.667-1.667 3.333-.833.833-2.667-1-2.667-1.833-.333-5.667-2.5-4.166.667-1-2.333h-3.334v-1.833l.834-3.167 3-1.5.333-3.5 2.667-1.5h2.333l-1-2.833 1-3z"/><path d="m880.727 390.784-1.442 1.586v2.018 2.163l2.451-1.009 1.299 1.298 1.442-1.441.576-2.886-1.586-2.306z"/><path d="m920.815 375.931-1.154.289-.864-2.452v-2.163l3.749 1.009 1.874.865 1.01 2.308 2.019 2.019 3.605.721.865 2.307 4.037 2.596h2.163l1.73 2.451 1.442 3.894 2.235 2.234 4.254 4.399 2.739.721 3.75 1.442 3.605 3.173 4.903 2.739 3.172 2.74 4.183 2.163 3.604 2.163 2.308 1.874 4.037 1.587-.576 1.875-1.441 1.441-2.74.865h-2.163l.577 3.028-.577 2.163v1.73l2.451 3.75s2.309 2.594 1.875 3.027.145 4.471.145 4.471l1.875 1.875 2.884 2.885 2.451 1.586h3.749l2.163 2.162h2.451l1.298 2.74 3.173.145 1.946-1.947 3.389 1.947 2.02 2.596s.722 1.73 0 1.73-4.615-1.875-4.615-1.875l-1.658 1.658h-3.677l-1.153 2.957.721 2.883 2.307 2.307 1.73 3.75-2.307 1.875-1.875-2.307-2.451-2.453-4.326-4.037v-2.74l-2.884-2.883-2.739-2.74-1.875-2.451-2.308-4.471-2.884-2.74-3.028-1.73-2.884-.865-2.453-5.191-5.335-7.354-4.326-4.327-3.604-3.604-3.174-4.326-2.019-3.316-5.479-2.452-4.326-1.874-2.596-.289-3.461-4.759v-2.162l-3.749-3.75-2.019-3.749-4.038-1.298 1.01-2.884v-2.163l3.316 1.009.577-2.884-1.946-1.946v-1.082l-1.911-1.912z"/><path d="m1042.666 451.203.577 3.027.288 2.885 1.155.432v-2.307l.865-1.875v-2.595z"/><path d="m1052.616 452.934v1.296l1.875 1.01v-2.164z"/><path d="m1046.704 441.252 1.731.721.577-2.307-.866-4.613 1.586-1.586-.288-3.319-2.452-.72-.721 3.75.938.935-.793 2.813z"/><path d="m1051.03 422.217-.721.721.577 2.453 1.154-1.731z"/><path d="m1052.761 413.42.72-3.749-1.008-2.306.576-2.452 1.947-1.948.504 2.669-.433 2.74.578 3.172-1.01 2.307z"/><path d="m970.709 195.098v3.172l-.288 2.884 1.73 1.154 1.154 1.442.144 2.595 2.308.865-.577-2.595-1.01-2.019 1.01-3.317v-4.037l-2.741-1.154z"/><path d="m1026.804 210.239-2.019.721 1.01 2.163h3.461 3.461l2.163-2.163-2.74-.865-2.741 1.154z"/><path d="m1036.756 316.516-.865 2.595-1.37 1.37 1.586 1.587.937 1.946-.288 2.596-.145 3.316 1.514 1.514 1.659-.937v-3.461l1.514-1.513-1.226-2.957-2.018-2.019.143-2.595z"/><path d="m1042.956 339.011v2.163l1.442.721 1.01-1.297z"/><path d="m1054.637 381.263v3.173 2.595h2.019l-.577-2.451v-1.587-1.874z"/><path d="m1039.065 202.738-1.875 1.298 1.009 1.009 1.37-1.37 1.37-1.37z"/><path d="m848.222 29.284-1.324-.496-1.157 1.212-2.536 1.324-2.067 2.067.192 3.556-.882.883.441 2.866 1.654 2.426 1.709 3.97 2.646.551 1.792-1.792 1.351-2.453-1.488-1.599 2.205-3.198-.386-3.473v-4.135z"/><path d="m21.541 258.137 2.594.582 2.223-.635.847-1.641 2.011.318 1.88 1.879.079 2.567 1.535.477.318 2.011 2.382.424.529-1.906-1.296-1.297 1.111-1.111.715.715 2.276 1.905v2.858l-.318 2.488 1.323 2.17 1.324.9.476 3.229-1.164 2.435-5.558 2.806-8.417-10.005z"/></g></svg>