<svg viewBox="0 0 480.97 455.63" xmlns="http://www.w3.org/2000/svg"><g fill="#fff"><path d="m302.65 443a23.55 23.55 0 0 1 -9.23-15.34l-3.12-20h-99.62l-3.15 20a23.5 23.5 0 0 1 -9.21 15.34c-8.34 6.12-14.91 11.38-8.34 12.28 6.34.84 66.09.07 70.51 0s64.16.84 70.48 0c6.57-.9 0-6.16-8.32-12.28z"/><path d="m128.25 283.3c26.64-.21 29.94-6.62 38.61-33.32 16-42.18 88.07 11 43.4 29.49s-108.62 4-82 3.83z"/><path d="m401.17 5.38c-12.92-10.38-34.31-5.26-47.79 11.46l-136.54 194c-13.48 16.72-13.41 13.53-.52 23.94s9.82 11.15 23.29-5.6l160.55-174.65c13.46-16.74 13.93-38.74 1-49.15zm-35.11 23.23s-2-2.33-8.64-7.64c9.98-16.29 29.58-13.31 29.58-13.31-18.58 11-20.93 21-20.93 21z"/><path d="m461.74 71h-60.05l-26.52 28.81h76.94v230.86h-423.25v-230.86h246.22l20.32-28.81h-276.17a19.25 19.25 0 0 0 -19.23 19.19v279a19.25 19.25 0 0 0 19.23 19.21h442.51a19.25 19.25 0 0 0 19.26-19.26v-278.95a19.25 19.25 0 0 0 -19.26-19.19z"/></g></svg>