<svg viewBox="0 0 429.17 502.27" xmlns="http://www.w3.org/2000/svg"><g fill="#bababa"><path d="m427.21 426.77-65.75-113c11.38-3.47 23.5-6.54 28.53-15.23 8.4-14.49-6.54-38.26-2.62-53.79 4-16 27.89-29.81 27.89-46.05 0-15.84-24.66-34.33-28.7-50.21-3.95-15.53 10.95-39.33 2.52-53.79s-36.46-13.28-48-24.39c-11.88-11.44-11.84-39.4-26.17-47.07s-37.77 7.86-53.74 4.17c-15.79-3.64-29.89-27.41-46.39-27.41-16.73 0-43.35 27-47.53 27.94-16 3.71-39.38-11.79-53.74-4.07s-14.23 35.66-26.08 47.13c-11.53 11.13-39.58 10-48 24.48s6.55 38.25 2.63 53.78-28.59 31.34-28.59 49.36c0 16.24 23.91 30 28 46 3.95 15.52-10.94 39.31-2.53 53.79 4.59 7.88 15 11.11 25.38 14.22 1.21.36 3.5 1.72 1.94 4-7.12 12.26-64.26 110.97-64.26 110.97-4.55 7.84-.85 14.57 8.2 14.95l44.37 1.85c9.06.39 20.43 7 25.27 14.64l23.67 37.57c4.84 7.67 12.51 7.53 17.06-.33 0 0 66.23-114.34 66.26-114.37 1.33-1.56 2.67-1.24 3.31-.69 7.24 6.17 17.35 12.32 25.78 12.32 8.27 0 15.93-5.8 23.5-12.26.62-.52 2.12-1.6 3.21.64l66.18 113.76c4.56 7.84 12.24 8 17.06.29l23.6-37.61c4.83-7.68 16.19-14.29 25.25-14.68l44.28-1.94c9.06-.4 12.74-7.14 8.18-15zm-139.11-102.86a147.5 147.5 0 0 1 -152.89-2.91c-65.9-42.21-87.58-129.52-48-197.88 40.09-69.12 128.16-93.55 197.95-55.54l1.09.61c.52.29 1 .57 1.54.87a146.41 146.41 0 0 1 53.57 53.4c40.85 70.22 17 160.59-53.26 201.45z"/><path d="m276.88 89.73-.61-.35a123.95 123.95 0 0 0 -128 212.27c1.42.89 2.84 1.77 4.3 2.61a124 124 0 1 0 124.31-214.53zm14.8 96.69-20.68 20.19c-6.42 6.25-10.43 18.59-8.91 27.43l4.89 28.5c1.51 8.83-3.73 12.64-11.66 8.47l-25.61-13.46c-7.92-4.17-20.9-4.17-28.83 0l-25.63 13.45c-7.93 4.17-13.18.36-11.67-8.47l4.9-28.5c1.51-8.84-2.5-21.18-8.91-27.43l-20.71-20.19c-6.42-6.25-4.41-12.42 4.45-13.71l28.62-4.16c8.87-1.29 19.36-8.91 23.33-16.94l12.8-25.94c4-8 10.45-8 14.42 0l12.8 25.94c4 8 14.46 15.65 23.33 16.94l28.61 4.16c8.87 1.29 10.87 7.46 4.46 13.71z"/></g></svg>