<svg viewBox="0 0 326.4 326.4" xmlns="http://www.w3.org/2000/svg"><g stroke-miterlimit="10"><circle cx="163.2" cy="163.2" r="160.2" stroke="#fff" stroke-width="6" transform="matrix(.70710678 -.70710678 .70710678 .70710678 -67.6 163.2)"/><g fill="#fff" stroke="#000" stroke-width="2"><path d="m226.78 161c0-6.56.37-12.27-3.65-12.27-2.12 0-2.41-.36-2.52-.81a59.4 59.4 0 0 0 -24.33-34.64 1.39 1.39 0 0 1 -.74-1.21v-65.23c0-3.45-2.89-7.12-8.25-7.12h-48.29c-5.38 0-8.29 3.67-8.29 7.12v65.16a2.07 2.07 0 0 1 -.85 1.4 59.2 59.2 0 0 0 -25.94 49c0 20.31 10.52 37.93 25.91 48.93a1.85 1.85 0 0 1 .88 1.56v66.07c0 3.45 2.89 7.12 8.25 7.12h48.27c5.39 0 8.29-3.67 8.29-7.12v-65.7a1.87 1.87 0 0 1 .93-1.66 57.32 57.32 0 0 0 24.9-38.35c0-1 2.07-.88 2.61-.88 4 0 2.8-4.84 2.8-11.4zm-83.78-110.75h40a1.84 1.84 0 0 1 2.07 2v53.75c0 1.18-.89.92-1.35.75a59.11 59.11 0 0 0 -41.72.25c-.25.09-.75.16-.75-.54v-54.3a1.63 1.63 0 0 1 1.75-1.91zm40.51 225.22h-40.51c-2 0-1.76-2.29-1.76-2.29v-54.18c0-.8.65-.6 1-.5a70.36 70.36 0 0 0 42.05-.07c.25-.08.75-.38.75.49v54.68s.3 1.91-1.48 1.91zm-20.37-65.29a47.87 47.87 0 0 1 -8.41-95 61.33 61.33 0 0 1 8.38-.58 60.5 60.5 0 0 1 8.64.62 47.87 47.87 0 0 1 -8.61 95z"/><path d="m191.54 137-25.11 22.78c-.46.39-.66.22-.8.17a6.91 6.91 0 0 0 -2.62-.51 7 7 0 0 0 -4.21 1.4.88.88 0 0 1 -1 .19l-17.71-7.13a4.63 4.63 0 1 0 -3.66 8.51l20.74 8.35a1.53 1.53 0 0 1 .7.55 7 7 0 0 0 2.69 1.79 8 8 0 0 0 4.62.11 7.18 7.18 0 0 0 4.9-6.71 1.49 1.49 0 0 1 .36-1.07l25.73-23.33a3.44 3.44 0 0 0 -4.62-5.1z"/></g></g></svg>