<svg id="Layer_1" data-name="Layer 1" xmlns="http://www.w3.org/2000/svg" viewBox="0 0 288 288"><defs><style>.cls-1,.cls-3{stroke:#fff;stroke-width:5px}.cls-1{stroke-miterlimit:10}.cls-2,.cls-3{fill:none;stroke-linecap:round;stroke-linejoin:round}.cls-2{stroke:#212020;stroke-width:3.31px}</style></defs><title>icons</title><circle class="cls-1" cx="141.02" cy="143.03" r="107.84"/><path class="cls-2" d="M197.4,128.36c-22.9,29.49-46.82,52.84-70.89,70.9-13.46,10.09-41.4-11-34.49-17.88l22-22a5.78,5.78,0,0,1,8.16,0c2.79,2.79,6.61,5.87,7.06,12.41a167.83,167.83,0,0,0,37.58-37.58c-6.53-.45-9.62-4.27-12.41-7.06a5.78,5.78,0,0,1,0-8.16l24-24C187.2,86.2,205.87,117.46,197.4,128.36Z"/><path class="cls-2" d="M87.59,163.59c-.27-.48-.53-1-.77-1.46a37.27,37.27,0,0,1-2.09-5.21,45.7,45.7,0,0,1-1.58-6.83,57.26,57.26,0,0,1,65.32-65.32,45.41,45.41,0,0,1,6.83,1.58,36.08,36.08,0,0,1,5.21,2.09"/><path class="cls-2" d="M97.14,158.13a28.74,28.74,0,0,1-1.68-4.2,37.17,37.17,0,0,1-1.29-5.52,47.5,47.5,0,0,1-.53-7,46,46,0,0,1,46.1-46.1,47.5,47.5,0,0,1,7,.53,37.17,37.17,0,0,1,5.52,1.29l.95.31"/><path class="cls-2" d="M106.14,150.89a28.18,28.18,0,0,1-1-4.18,35.5,35.5,0,0,1-.41-5.35,34.94,34.94,0,0,1,35-35,35.5,35.5,0,0,1,5.35.41,34.15,34.15,0,0,1,3.72.78"/><path class="cls-2" d="M116.67,147.33a20.38,20.38,0,0,1-.5-2.32,23.52,23.52,0,0,1-.28-3.65,23.83,23.83,0,0,1,23.85-23.85,23.52,23.52,0,0,1,3.65.28"/><path class="cls-2" d="M127,141.36a12.7,12.7,0,0,1,12.72-12.72"/><path class="cls-3" d="M197.4,128.36c-22.9,29.49-46.82,52.84-70.89,70.9-13.46,10.09-41.4-11-34.49-17.88l22-22a5.78,5.78,0,0,1,8.16,0c2.79,2.79,6.61,5.87,7.06,12.41a167.83,167.83,0,0,0,37.58-37.58c-6.53-.45-9.62-4.27-12.41-7.06a5.78,5.78,0,0,1,0-8.16l24-24C187.2,86.2,205.87,117.46,197.4,128.36Z"/><path class="cls-3" d="M87.59,163.59c-.27-.48-.53-1-.77-1.46a37.27,37.27,0,0,1-2.09-5.21,45.7,45.7,0,0,1-1.58-6.83,57.26,57.26,0,0,1,65.32-65.32,45.41,45.41,0,0,1,6.83,1.58,36.08,36.08,0,0,1,5.21,2.09"/><path class="cls-3" d="M97.14,158.13a28.74,28.74,0,0,1-1.68-4.2,37.17,37.17,0,0,1-1.29-5.52,47.5,47.5,0,0,1-.53-7,46,46,0,0,1,46.1-46.1,47.5,47.5,0,0,1,7,.53,37.17,37.17,0,0,1,5.52,1.29l.95.31"/><path class="cls-3" d="M106.14,150.89a28.18,28.18,0,0,1-1-4.18,35.5,35.5,0,0,1-.41-5.35,34.94,34.94,0,0,1,35-35,35.5,35.5,0,0,1,5.35.41,34.15,34.15,0,0,1,3.72.78"/><path class="cls-3" d="M116.67,147.33a20.38,20.38,0,0,1-.5-2.32,23.52,23.52,0,0,1-.28-3.65,23.83,23.83,0,0,1,23.85-23.85,23.52,23.52,0,0,1,3.65.28"/><path class="cls-3" d="M127,141.36a12.7,12.7,0,0,1,12.72-12.72"/></svg>