<svg viewBox="0 0 326.4 326.4" xmlns="http://www.w3.org/2000/svg"><circle cx="163.2" cy="163.2" r="160.2" stroke="#fff" stroke-miterlimit="10" stroke-width="6" transform="matrix(.70710678 -.70710678 .70710678 .70710678 -67.6 163.2)"/><g fill="#fff"><path d="m171.44 112.82a2.52 2.52 0 0 1 -1.72-.71 2.43 2.43 0 0 1 3.43-3.43 2.43 2.43 0 0 1 -1.71 4.14z"/><path d="m256.58 132.64-24.72-49c-.84-2.79-4.06-7.19-20.15-13.77-7.19-2.87-14.09-5.11-16.51-5.87a28.47 28.47 0 0 0 -9-8.29 2.39 2.39 0 0 0 -1.27-.37h-39.55a2.31 2.31 0 0 0 -1.27.37 28.47 28.47 0 0 0 -9 8.29c-2.42.75-9.32 2.95-16.51 5.89-16.09 6.58-19.31 11-20.15 13.77l-24.72 49a2.43 2.43 0 0 0 1.1 3.27l35.24 17.07v96.84a2.4 2.4 0 0 0 1.61 2.28c.79.28 9 2.76 53.46 2.76 44.43 0 52.67-2.48 53.47-2.76a2.41 2.41 0 0 0 1.6-2.28v-96.84l35.26-17.09a2.39 2.39 0 0 0 1.23-1.4 2.43 2.43 0 0 0 -.13-1.87zm-26.86-42.47 17.84 35.34-27.34 13.37v-11.88c0-12.91 6.18-29.11 9.5-36.87zm-43.61-28.65c5.28 3.94 7.45 8.16 6.79 13.11-.7 5.39-3.77 18-5.08 23.25l-13.69-3.64zm-17.33 33.26-3.63 5.28-3.64-5.28-10-27.43h27.37zm12.67-34.58-.85 2.31h-30.91l-.85-2.31zm-37.27 1.32 12 32.72-13.69 3.64c-1.31-5.26-4.38-17.86-5.09-23.25-.65-4.95 1.52-9.17 6.8-13.11zm-34.11 86.1-30.93-15 1.41-2.8 29.52 14.44zm0-8.74-27.34-13.37 17.84-35.34c3.31 7.76 9.5 24 9.5 36.87zm105.31-11.88v120.9c-4 .69-16.38 2.14-50.23 2.14s-46.26-1.45-50.24-2.14v-120.9c0-16.79-9.34-37.78-11.58-42.58 2.34-4 15.91-10.2 29.38-14.62a17.19 17.19 0 0 0 -.13 5.42c.95 7.16 5.6 25.41 5.8 26.19a2.39 2.39 0 0 0 1.12 1.48 2.55 2.55 0 0 0 1.85.26l17-4.51 4.4 6.4v19.81a2.42 2.42 0 0 0 4.84 0v-19.8l4.41-6.37 17 4.51a2.41 2.41 0 0 0 1.85-.26 2.45 2.45 0 0 0 1.12-1.48c.2-.78 4.85-19 5.8-26.19a17.19 17.19 0 0 0 -.13-5.42c13.48 4.42 27 10.61 29.38 14.62-2.25 4.8-11.58 25.79-11.58 42.58zm4.84 20.58v-3.35l29.52-14.44 1.41 2.8z"/></g></svg>