<svg viewBox="0 0 326.4 326.4" xmlns="http://www.w3.org/2000/svg"><circle cx="163.2" cy="163.2" r="160.2" stroke="#fff" stroke-miterlimit="10" stroke-width="6"/><path d="m149.22 45.09h26.98v23.39h-26.98z"/><path d="m176.2 97.51v-21.79h-27v21.79a32.8 32.8 0 0 0 -19.36 30v129.55h65.69v-129.58a32.69 32.69 0 0 0 -19.33-29.97zm13.57 126.49h-53.52v-64.24h53.52z"/><path d="m149.22 45.09h26.98v23.39h-26.98z"/><path d="m176.2 97.51v-21.79h-27v21.79a32.8 32.8 0 0 0 -19.36 30v129.55h65.69v-129.58a32.69 32.69 0 0 0 -19.33-29.97zm13.57 126.49h-53.52v-64.24h53.52z"/><g fill="none" stroke="#fff" stroke-miterlimit="10" stroke-width="5"><path d="m149.22 45.09h26.98v23.39h-26.98z"/><path d="m176.2 97.51v-21.79h-27v21.79a32.8 32.8 0 0 0 -19.36 30v129.55h65.69v-129.58a32.69 32.69 0 0 0 -19.33-29.97zm13.57 126.49h-53.52v-64.24h53.52z"/></g></svg>