<svg viewBox="0 0 326.4 326.4" xmlns="http://www.w3.org/2000/svg"><g stroke="#fff" stroke-miterlimit="10"><circle cx="163.2" cy="163.2" r="160.2" stroke-width="6" transform="matrix(.70710678 -.70710678 .70710678 .70710678 -67.6 163.2)"/><g stroke-width="4"><g fill="none"><path d="m89.67 130.55h69.57v35.4h-69.57z"/><path d="m104.31 180.6h54.93v64.69h-54.93z"/><path d="m131.78 80a14.92 14.92 0 0 0 -5.62-1.1 20.48 20.48 0 0 0 -10.74 3.42c-3.91 2.32-6.22 4.76-6 6.22.85 6.6 22.22 18.31 47 26-4.75-12.67-13.29-29.88-24.64-34.54z"/><path d="m173.89 180.6h54.93v64.69h-54.93z"/><path d="m173.89 130.55h69.57v35.4h-69.57z"/><path d="m227.84 88.56c.12-1.46-2.2-3.9-6-6.22a20.51 20.51 0 0 0 -10.74-3.42 14.88 14.88 0 0 0 -5.6 1.08c-7.2 2.93-14.28 11.47-20.38 24.65-1.71 3.55-3.05 7-4.15 9.89 24.65-7.67 46.03-19.38 46.87-25.98z"/></g><path d="m251.15 115.91h-34.42c16.11-8.55 24.29-16.36 25.51-25.39.73-5.49-1-13.43-12.81-20.63-12.58-7.57-23-6-29.54-3.3-10.75 4.4-20.26 15.14-28.08 32-1.22 2.57-2.19 5-3.17 7.33-1-2.32-1.95-4.76-3.17-7.33-7.94-16.84-17.34-27.58-28.08-32-6.59-2.68-17-4.27-29.54 3.3-12 7.2-13.54 15.26-12.81 20.75 1.1 8.91 9.27 16.72 25.39 25.27h-38.43a6.93 6.93 0 0 0 -7 7.2v50.53a6.67 6.67 0 0 0 7 7h7.69v72.36a6.74 6.74 0 0 0 7 7h139.81a6.74 6.74 0 0 0 7-7v-72.4h7.69a6.67 6.67 0 0 0 7-7v-50.49a6.93 6.93 0 0 0 -7.04-7.2zm-141.71-27.35c-.24-1.46 2.07-3.9 6-6.22a20.48 20.48 0 0 1 10.74-3.42 14.92 14.92 0 0 1 5.62 1.1c11.35 4.64 19.89 21.85 24.65 34.54-24.79-7.69-46.16-19.4-47.01-26zm49.8 156.73h-54.93v-64.69h54.93zm0-79.34h-69.57v-35.4h69.57zm25.88-61.28c6.1-13.18 13.18-21.67 20.38-24.67a14.88 14.88 0 0 1 5.62-1.1 20.51 20.51 0 0 1 10.74 3.42c3.78 2.32 6.1 4.76 6 6.22-.86 6.6-22.22 18.31-46.87 26 1.08-2.91 2.42-6.32 4.13-9.87zm43.69 140.62h-54.92v-64.69h54.92zm14.65-79.29h-69.57v-35.4h69.57z"/></g></g></svg>