<svg viewBox="0 0 326.4 326.4" xmlns="http://www.w3.org/2000/svg"><g stroke-miterlimit="10"><circle cx="163.2" cy="163.2" r="160.2" stroke="#fff" stroke-width="6"/><path d="m249.09 165.35h-27.3v-47.1a3.29 3.29 0 0 0 -3.29-3.3h-21.33s0-30.48 0-31.18c1.74-2.39 2.84-5.81 2.84-11.54 0-10.23-8.46-22.13-8.82-22.64a3.3 3.3 0 0 0 -5.36 0c-.36.5-8.81 12.4-8.81 22.63 0 6 1.33 9.62 3.17 12v30.72h-9.3s0-30.49 0-31.19c1.74-2.4 2.84-5.81 2.84-11.54 0-10.23-8.46-22.14-8.82-22.64a3.31 3.31 0 0 0 -5.36 0c-.36.5-8.82 12.41-8.82 22.64 0 6 1.33 9.61 3.18 12v30.73h-9.31s0-30.49 0-31.19c1.74-2.4 2.84-5.81 2.84-11.54 0-10.23-8.46-22.14-8.82-22.64a3.31 3.31 0 0 0 -5.36 0c-.36.5-8.82 12.41-8.82 22.64 0 6 1.34 9.61 3.18 12v30.73h-21.25a3.3 3.3 0 0 0 -3.3 3.3v47.1h-27.31a3.29 3.29 0 0 0 -3.3 3.29v76.37a3.3 3.3 0 0 0 3.3 3.3h173.33a3.3 3.3 0 0 0 3.3-3.3v-76.4a3.29 3.29 0 0 0 -3.3-3.25zm-60.54-107.62c2.18 3.85 4.9 9.63 4.9 14.5 0 3.5-.6 9.39-4.69 9.58h-.42c-4.08-.19-4.69-6.08-4.69-9.58 0-4.87 2.72-10.65 4.9-14.5zm2 30.67v26.6h-3.76v-26.6zm-28.26-30.69c2.18 3.85 4.9 9.63 4.9 14.51 0 3.49-.6 9.39-4.69 9.57h-.21-.21c-4.08-.18-4.69-6.07-4.69-9.57 0-4.88 2.72-10.66 4.9-14.51zm2 30.68v26.61h-3.76v-26.61zm-28.29-30.68c2.18 3.85 4.91 9.63 4.91 14.51 0 3.49-.61 9.39-4.7 9.57h-.21-.2c-4.09-.18-4.7-6.07-4.7-9.57.02-4.88 2.74-10.66 4.9-14.51zm2 57.24h-3.77v-26.56h3.77zm-28.38 6.6h105.58v14.37c-7.44 13.75-23.16 14.15-24.95 14.15h-.25c-17.41 0-24.25-15-24.53-15.63a3.3 3.3 0 0 0 -3-2 3.3 3.3 0 0 0 -3 1.92c-6.84 14.93-22.64 15.69-25.74 15.69h-.36c-14.17 0-21.34-10-23.67-14v-14.5zm136.12 102.8v17.4h-166.68v-27.87a33.65 33.65 0 0 0 22.92 8.7h.51c3.41 0 20.29-.76 30.11-15.18 4.3 6.08 13.31 15.15 28.75 15.17 1.54 0 20.11.25 30.61-15.16 4.28 6.05 13.29 15.15 28.77 15.16 1.13 0 14.55.08 25.06-9.25v11zm0-44.55v23.6c-8.64 12.77-24.74 12.6-24.88 12.6h-.09c-18.36 0-25.56-15.81-25.85-16.47a3.31 3.31 0 0 0 -3-2 3.3 3.3 0 0 0 -3 1.92c-7.77 17-26.57 16.56-27.36 16.54h-.13c-17.8 0-25.11-14.84-25.81-16.36a3.3 3.3 0 0 0 -6.1-.09c-7.82 16.89-26.52 16.46-27.36 16.46h-.16c-11.67 0-18.88-6.26-23-11.86v-32.2h98a3.3 3.3 0 1 0 0-6.59h-67.33v-18.54a32.38 32.38 0 0 0 23.62 9.85h.41c3.42 0 19.4-.76 28.8-14.36 4.16 5.8 12.76 14.34 27.44 14.35h.31c1.81 0 15.12-.34 24.94-9.91v18.59h-10.19a3.3 3.3 0 1 0 0 6.59h40.76v7.86z" fill="#fff" stroke="#000" stroke-width=".75"/></g></svg>