<svg viewBox="0 0 288 288" xmlns="http://www.w3.org/2000/svg"><circle cx="141.02" cy="143.84" r="107.84" stroke="#fff" stroke-miterlimit="10" stroke-width="5"/><g fill="none" stroke-linecap="round" stroke-linejoin="round"><path d="m117.17 193.19h-9.67a15.84 15.84 0 0 1 -15.84-15.83v-67.65a15.84 15.84 0 0 1 15.84-15.84h67a15.84 15.84 0 0 1 15.83 15.84v67.65a15.83 15.83 0 0 1 -15.83 15.83h-26.34l-.16-39.52h15.66v-15.87h-15.66v-7.72a6 6 0 0 1 6-6h9.63v-18.66h-17.75a19.47 19.47 0 0 0 -19.46 19.47v12.91h-8v15.87h8v49.1h-20.66a23.67 23.67 0 0 1 -23.67-23.67v-70.51a23.67 23.67 0 0 1 23.67-23.67h70.51a23.67 23.67 0 0 1 23.67 23.67v70.51a23.67 23.67 0 0 1 -23.67 23.67h-38.34" stroke="#212020" stroke-width="3.31"/><path d="m117.17 193.19h-9.67a15.84 15.84 0 0 1 -15.84-15.83v-67.65a15.84 15.84 0 0 1 15.84-15.84h67a15.84 15.84 0 0 1 15.83 15.84v67.65a15.83 15.83 0 0 1 -15.83 15.83h-26.34l-.16-39.52h15.66v-15.87h-15.66v-7.72a6 6 0 0 1 6-6h9.63v-18.66h-17.75a19.47 19.47 0 0 0 -19.46 19.47v12.91h-8v15.87h8v49.1h-20.66a23.67 23.67 0 0 1 -23.67-23.67v-70.51a23.67 23.67 0 0 1 23.67-23.67h70.51a23.67 23.67 0 0 1 23.67 23.67v70.51a23.67 23.67 0 0 1 -23.67 23.67h-38.34" stroke="#fff" stroke-width="5"/></g></svg>