<svg viewBox="0 0 326.4 326.4" xmlns="http://www.w3.org/2000/svg"><g stroke-miterlimit="10"><circle cx="163.2" cy="163.2" r="160.2" stroke="#fff" stroke-width="6" transform="matrix(.70710678 -.70710678 .70710678 .70710678 -67.6 163.2)"/><path d="m247.38 216.47-22.91-97.75-.09-.32-.38-13.28a5.61 5.61 0 0 0 -5.62-5.47h-18l-3-13.78a31 31 0 0 0 -27.87-24.23 30.91 30.91 0 0 0 -51.11 23.44v14.57h-21.25a5.61 5.61 0 0 0 -5.62 5.47l-3.59 127.39a5.62 5.62 0 0 0 5.62 5.78h15.73l2.36 11a5.62 5.62 0 0 0 5.5 4.45 5.44 5.44 0 0 0 1.33-.16l62.9-15.31h40.62a5.62 5.62 0 0 0 5.62-5.78l-.15-5.43 15.8-3.85a5.63 5.63 0 0 0 4.14-6.76zm-61-128.19 2.49 11.37h-8.59v-14.57a31 31 0 0 0 -1.1-8.16 19.53 19.53 0 0 1 7.2 11.36zm-23.43-15c.62-.13 1.24-.23 1.86-.31a19.54 19.54 0 0 1 4.19 12.11v14.57h-20.45l-.64-3a19.71 19.71 0 0 1 15-23.44zm-33.31 11.8a19.71 19.71 0 0 1 19.69-19.68 21.07 21.07 0 0 1 2.53.18 31 31 0 0 0 -14.94 33.51l.12.56h-7.4zm-8.2 156.22-.64-3h13zm-22.09-14.3 3.27-116.14h110.29l3.27 116.14zm127.76-11.47-1.11-41.2 9.21 39.28z" fill="#fff" stroke="#000"/></g></svg>