<svg viewBox="0 0 326.4 326.4" xmlns="http://www.w3.org/2000/svg"><g stroke="#fff" stroke-miterlimit="10"><circle cx="163.2" cy="163.2" r="160.2" stroke-width="6" transform="matrix(.70710678 -.70710678 .70710678 .70710678 -67.6 163.2)"/><g stroke-width="5"><path d="m259.17 91.38-19.62-19.63-97.83 83.89 33.57 33.57z"/><path d="m170.74 193.26-33.08-33.07-30 43.43 19.62 19.63z"/><path d="m103.6 246.24 18.17-23.59-13.72-13.48-21.32 16.08s-.91 19.83-13.57 30.75c0 0 14.93-11.44 30.44-9.73zm-6.55-6.93a4.2 4.2 0 1 1 4.2-4.18 4.19 4.19 0 0 1 -4.2 4.18z"/><path d="m242.92 68 18.08 18.1c0-18.78-18.11-18.1-18.11-18.1z"/></g></g></svg>