<svg id="Layer_1" data-name="Layer 1" xmlns="http://www.w3.org/2000/svg" viewBox="0 0 288 288"><defs><style>.cls-1,.cls-3{stroke:#fff;stroke-width:5px}.cls-1{stroke-miterlimit:10}.cls-2,.cls-3{fill:none;stroke-linecap:round;stroke-linejoin:round}.cls-2{stroke:#212020;stroke-width:3.31px}</style></defs><title>icons</title><circle class="cls-1" cx="142.71" cy="143.84" r="107.84"/><rect class="cls-2" x="83.79" y="84.92" width="117.85" height="117.85" rx="23.67"/><rect class="cls-2" x="93.36" y="93.87" width="98.7" height="99.32" rx="15.83"/><circle class="cls-2" cx="142.71" cy="143.53" r="29.79"/><circle class="cls-2" cx="142.71" cy="143.53" r="18.66" transform="translate(-21.83 261.41) rotate(-80.78)"/><path class="cls-2" d="M178.43,107c5.59,5.59,4.92,15.31,2.5,17.74s-5.7-3.36-11.29-8.94-11.37-8.86-8.94-11.29S172.85,101.43,178.43,107Z"/><rect class="cls-3" x="83.79" y="84.92" width="117.85" height="117.85" rx="23.67"/><rect class="cls-3" x="93.36" y="93.87" width="98.7" height="99.32" rx="15.83"/><circle class="cls-3" cx="142.71" cy="143.53" r="29.79"/><circle class="cls-3" cx="142.71" cy="143.53" r="18.66" transform="translate(-21.83 261.41) rotate(-80.78)"/><path class="cls-3" d="M178.43,107c5.59,5.59,4.92,15.31,2.5,17.74s-5.7-3.36-11.29-8.94-11.37-8.86-8.94-11.29S172.85,101.43,178.43,107Z"/></svg>