<svg viewBox="0 0 288 288" xmlns="http://www.w3.org/2000/svg"><circle cx="142.71" cy="143.03" r="107.84" stroke="#fff" stroke-miterlimit="10" stroke-width="5"/><g fill="none" stroke-linecap="round" stroke-linejoin="round"><g stroke="#212020" stroke-width="3.31"><circle cx="145.52" cy="140.22" r="46.77"/><path d="m94.22 163-10.43 39 38.95-10.44a56.11 56.11 0 1 0 -28.52-28.56z"/><path d="m161 168a217 217 0 0 1 -40.76-40.76c-5.8-7.73 6.3-23.8 10.28-19.82l12.59 12.58a3.31 3.31 0 0 1 0 4.69c-1.6 1.6-3.37 3.8-7.13 4.06a96.6 96.6 0 0 0 21.6 21.6c.26-3.76 2.46-5.53 4.06-7.13a3.31 3.31 0 0 1 4.69 0l13.78 13.78c5.08 5.11-12.89 15.85-19.11 11z"/></g><circle cx="145.52" cy="140.22" r="46.77" stroke="#fff" stroke-width="5"/><path d="m94.22 163-10.43 39 38.95-10.44a56.11 56.11 0 1 0 -28.52-28.56z" stroke="#fff" stroke-width="5"/><path d="m161 168a217 217 0 0 1 -40.76-40.76c-5.8-7.73 6.3-23.8 10.28-19.82l12.59 12.58a3.31 3.31 0 0 1 0 4.69c-1.6 1.6-3.37 3.8-7.13 4.06a96.6 96.6 0 0 0 21.6 21.6c.26-3.76 2.46-5.53 4.06-7.13a3.31 3.31 0 0 1 4.69 0l13.78 13.78c5.08 5.11-12.89 15.85-19.11 11z" stroke="#fff" stroke-width="5"/></g></svg>