<svg viewBox="0 0 326.4 326.4" xmlns="http://www.w3.org/2000/svg"><g stroke-miterlimit="10"><circle cx="163.2" cy="163.2" r="160.2" stroke="#fff" stroke-width="6" transform="matrix(.70710678 -.70710678 .70710678 .70710678 -67.6 163.2)"/><path d="m217.06 52.2c-11.14 0-23.08 4.4-35.51 13.07a107.87 107.87 0 0 0 -14 11.6h-5.37a15.93 15.93 0 1 0 -26.6 15.41v12.92h-11a4.09 4.09 0 0 0 -4 3.25l-6 28.81c-20.28 10.23-31.87 30.65-31.87 56.37 0 26.1 17.56 51.1 42.73 60.88h.06.08.11l.21.07.19.05h.18.27.11.4 39.95.4.11.28.18l.19-.05.21-.07h.11.08.06c25.16-9.77 42.72-34.78 42.72-60.88 0-25.73-11.59-46.15-31.89-56.38l-6.33-28.84a4.09 4.09 0 0 0 -4-3.21h-11.12v-12.92a16 16 0 0 0 4.2-7.22h5.32a109 109 0 0 0 13.94 12c12.44 9 24.4 13.6 35.57 13.6 14.79 0 26.82-13.12 26.82-29.25s-12-29.25-26.82-29.25zm-70.23 21a7.75 7.75 0 1 1 -7.74 7.8 7.75 7.75 0 0 1 7.74-7.74zm48.86 90.16c4.92 8.57 7.41 18.75 7.41 30.25a55.25 55.25 0 0 1 -10.9 32.48 60.48 60.48 0 0 1 -26 20.54h-38.39a60.48 60.48 0 0 1 -26-20.54 55.26 55.26 0 0 1 -10.91-32.48c0-11.5 2.5-21.68 7.42-30.25a46.93 46.93 0 0 1 20.79-19.22h55.83a47 47 0 0 1 20.8 19.22zm-24.95-27.36h-47.57l4.75-22.58h37.86zm-20.9-30.77h-6v-8.62a15.77 15.77 0 0 0 6 0zm67.22-2.69c-17.94 0-35.38-15.11-41.95-21.49 6.61-6.17 24-20.62 41.95-20.62 10.27 0 18.63 9.44 18.63 21.05s-8.36 21.06-18.63 21.06z" fill="#fff" stroke="#000" stroke-width=".75"/></g></svg>