<svg viewBox="0 0 326.4 326.4" xmlns="http://www.w3.org/2000/svg"><g stroke-miterlimit="10"><circle cx="163.2" cy="163.2" r="160.2" stroke="#fff" stroke-width="6" transform="matrix(.70710678 -.70710678 .70710678 .70710678 -67.6 163.2)"/><g fill="#fff" stroke="#000" stroke-width="2"><path d="m145.75 104.54h-64.65a12 12 0 0 0 -12.1 11.81v125.09a12 12 0 0 0 12.1 11.82h64.65a12 12 0 0 0 12.1-11.82v-125.09a12 12 0 0 0 -12.1-11.81zm4.07 136.9a4 4 0 0 1 -4.07 3.81h-64.65a4 4 0 0 1 -4.1-3.81v-18.91h72.81zm0-26.91h-72.82v-85.06h72.81zm0-93.08h-72.82v-5.1a4 4 0 0 1 4.09-3.81h64.65a4 4 0 0 1 4.07 3.81z"/><path d="m121.6 232.84a8.19 8.19 0 1 1 -8.18-8.19 8.18 8.18 0 0 1 8.18 8.19z"/><path d="m254.75 79.37h-120.23a12.93 12.93 0 0 0 -12.92 12.92v9.57h10.69v-9.57a2.24 2.24 0 0 1 2.23-2.24h120.23a2.23 2.23 0 0 1 2.25 2.24v77.47a2.22 2.22 0 0 1 -2.21 2.23h-93v10.69h27.53v4.68h-15.7a5.35 5.35 0 0 0 0 10.69h41.74a5.35 5.35 0 1 0 0-10.69h-15.36v-4.68h54.77a12.92 12.92 0 0 0 12.91-12.92v-77.47a12.93 12.93 0 0 0 -12.91-12.92z"/></g></g></svg>