<svg viewBox="0 0 326.4 326.4" xmlns="http://www.w3.org/2000/svg"><g stroke-miterlimit="10"><circle cx="163.2" cy="163.2" r="160.2" stroke="#fff" stroke-width="6" transform="matrix(.70710678 -.70710678 .70710678 .70710678 -67.6 163.2)"/><path d="m230.34 73.46-34.8-15.09a8.22 8.22 0 0 0 -8.94 1.63 8.17 8.17 0 0 0 -5.67-2.28h-37.93a8.15 8.15 0 0 0 -5.67 2.28 8.41 8.41 0 0 0 -2.67-1.71 8.21 8.21 0 0 0 -6.27.1l-34.81 15.07a8.2 8.2 0 0 0 -4.26 10.78l9.78 22.56a27.14 27.14 0 0 0 27.9 16.2l4 8.52-7.71-1.65a8.2 8.2 0 0 0 -9.49 10.62l39.86 118.77a8.17 8.17 0 0 0 7.53 5.58h.24a8.2 8.2 0 0 0 7.61-5.14l40.76-101.51a8.19 8.19 0 0 0 -5.8-11.06l-15.83-3.4 9-20.71c.91.09 1.83.14 2.74.14a27.22 27.22 0 0 0 25-16.36l9.78-22.56a8.2 8.2 0 0 0 -4.27-10.78zm-79.15.63h21.54v16.39a10.77 10.77 0 1 1 -21.54 0zm-37 26.19-6.52-15 19.77-8.57 6.52 15a10.77 10.77 0 0 1 -19.77 8.57zm27.81 16.06a27.17 27.17 0 0 0 3.74-4.06 27.06 27.06 0 0 0 8 4.1v20l-2.5-.53zm41.19 43.1-36.32 27.9-12.87-38.44zm-21 73.5-9.79-29.17 31.09-23.88zm8-93.06v-23.5a27.12 27.12 0 0 0 8-4.1 27.65 27.65 0 0 0 3.93 4.23l-10.27 23.72zm39.63-39.6a10.79 10.79 0 0 1 -14.17 5.6 10.78 10.78 0 0 1 -5.65-14.17l6.52-15 19.77 8.57z" fill="#fff" stroke="#000" stroke-width="8"/></g></svg>