<svg viewBox="0 0 749.19 807.65" xmlns="http://www.w3.org/2000/svg"><g fill="#fff"><path d="m601.5 644.65h39.89v62.92h16.41l33.74-62.92h42.86l-44 78v.45l46.51 84.58h-44.68l-34.43-66.14h-16.41v66.11h-39.89z"/><path d="m161.09 454.72c0-29.21-.14-58.43.13-87.65.05-5.47-.93-9.19-6.76-10.39-7.1-1.45-8.81-5.9-8.69-12.91.43-25.41.32-50.84.06-76.25-.06-5.34 1.74-7.94 6.66-10 70-29.44 139.85-59.15 209.87-88.52a16 16 0 0 1 11.26.07c69.8 29.28 139.45 58.88 209.22 88.24 5.08 2.14 7.22 4.67 7.14 10.45-.32 25.88-.36 51.78 0 77.67.09 6.11-1.91 9.54-7.56 10.8-6.57 1.46-7.93 5.38-7.9 11.8.27 58.2.07 116.39.29 174.59 0 5.86-1.72 8.69-7.26 11-64.55 27.06-129 54.48-193.51 81.52a17.11 17.11 0 0 1 -11.9.22c-64.78-27.13-129.4-54.64-194.14-81.85-5.12-2.16-7.14-4.68-7.07-10.42.33-29.45.16-58.91.16-88.37zm7.07-92.19c-.16 2.71-.3 4.1-.3 5.49 0 57.49.07 115-.16 172.46 0 5.38 2.79 6.75 6.69 8.39 62.52 26.39 125 52.91 187.58 79.1a17 17 0 0 0 11.85 0c62.6-26.19 125.05-52.75 187.61-79 4.86-2 6.66-4.47 6.64-9.89-.22-56.29-.13-112.59-.15-168.89 0-2.24-.22-4.47-.37-7.38-3.26 1.29-5.67 2.18-8 3.18q-92.53 39.12-185 78.35c-4.79 2-8.61 1.93-13.41-.12-44.7-19.14-89.54-38-134.33-56.9zm-11.73-99.28c3.48 1.59 5.6 2.61 7.77 3.53q98.3 41.58 196.56 83.22c5 2.13 9 2.28 14.06.12q90-38.37 180.17-76.32c7.83-3.31 15.64-6.68 24.23-10.36-2.61-1.21-4.3-2.06-6-2.79q-100.22-42.44-200.59-84.71c-3-1.24-7.46-.85-10.55.44-37.23 15.48-74.33 31.27-111.46 47zm426.38 6.23c-3.28 1.31-6.11 2.37-8.88 3.55q-99.66 42.15-199.27 84.43a15.66 15.66 0 0 1 -13.47 0q-99.55-42.37-199.26-84.42c-2.77-1.17-5.58-2.26-8.9-3.6v79.21c70.22 29.86 140 59.59 209.93 89.09a13.41 13.41 0 0 0 9.32-.1c27.28-11.24 54.42-22.79 81.59-34.29q64.5-27.28 128.94-54.58z"/><path d="m367.68 643.12a21.48 21.48 0 0 1 -8.14-1.5c-36.64-15.34-73.83-31.06-109.8-46.27-27.64-11.68-56.22-23.76-84.35-35.59-7.86-3.3-11.32-8.46-11.23-16.74.23-21.72.2-43.82.17-65.19q0-11.55 0-23.11 0-11.33 0-22.66c0-21.32-.06-43.36.14-65.05a10.65 10.65 0 0 0 -.29-3.36 4.39 4.39 0 0 0 -1-.32c-14.39-2.95-14.18-15.54-14.11-19.68.46-26.93.29-53.56.06-76.06-.08-8 3.35-13.2 10.82-16.34q45.87-19.29 91.7-38.7c38.72-16.36 78.75-33.29 118.17-49.82a22.7 22.7 0 0 1 16.52.07c39.28 16.48 79.18 33.34 117.76 49.64q45.72 19.32 91.46 38.6c7.92 3.33 11.41 8.51 11.3 16.79-.35 27.52-.34 52.86 0 77.49.18 12.08-6.91 16.2-12.88 17.53-2.26.5-2.61.58-2.59 5.14.15 31.06.16 62.65.17 93.19 0 26.68 0 54.27.12 81.4 0 8.76-3.38 13.93-11.42 17.3-31.52 13.21-63.52 26.73-94.48 39.81-32.44 13.7-66 27.87-99 41.71a23.72 23.72 0 0 1 -9.1 1.72zm-193.13-101.69a18.93 18.93 0 0 0 2.48 1.19l54.97 23.21c43.44 18.37 88.37 37.36 132.62 55.87a10.32 10.32 0 0 0 6.61 0c35.76-15 72.07-30.3 107.19-45.13q40.2-17 80.41-33.89c2.49-1.05 2.49-1.1 2.48-3.61-.16-41.81-.16-84.31-.15-125.41v-41l-29.33 12.34c-50.71 21.43-103.16 43.59-154.67 65.52-6.4 2.72-12.18 2.69-18.74-.12-34.7-14.85-70.07-29.78-104.28-44.21l-30-12.68-49.48-20.9q0 18.35 0 36.68c0 43 0 87.45-.16 131.19a4.3 4.3 0 0 0 .05.95zm-14.73-197.24 26.18 11.12c58.9 25.05 119.81 50.95 179.65 76.21a6.82 6.82 0 0 0 4.1-.13c22.82-9.4 45.95-19.19 68.32-28.66l13.21-5.6q45.22-19.13 90.46-38.31l34.26-14.52v-64.79l-29 12.3c-55.62 23.52-113.13 47.85-169.63 71.9a22.36 22.36 0 0 1 -18.79 0c-55.35-23.57-111.7-47.4-166.19-70.44l-32.52-13.75zm13.74-80.83 39.06 16.52c49.44 20.9 100.57 42.51 150.8 63.9 3.42 1.45 5.54 1.48 8.74.12 45.86-19.55 92.55-39.29 137.71-58.37l42.48-18 9.83-4.19-18.62-7.89c-56.86-24.05-115.65-48.96-173.56-73.25a8.94 8.94 0 0 0 -5.31.45c-29.91 12.43-60.24 25.29-89.58 37.72z"/><path d="m25.77 0h67.71c31.68 0 53.11 23.25 53.11 56.08s-21.43 56.53-53.11 56.53h-27.82v50.39h-39.89zm59.5 78.42c13.91 0 20.74-9.35 20.74-22.34s-6.83-21.89-20.01-21.89h-20.34v44.23z"/><path d="m651.85 8.41h41.94l55.4 163h-41l-10-34.19h-50.9l-9.8 34.19h-41zm36.93 96.88-9.12-31.68c-3-10.26-6.61-28-6.61-28h-.46s-3.59 17.74-6.59 28l-9.34 31.68z"/><path d="m85.49 634.34c21.88 0 45.13 7.3 61.09 23l-18.46 30.09c-10.49-9.12-26.22-16.65-40.81-16.65-32.6 0-46.05 23-46.05 46.51 0 24.16 14.59 49 46.05 49 16.19 0 32.14-8.89 43.31-20.06l20.52 29.18c-14.36 14.82-35.79 27.36-65.65 27.36-52.43.04-85.49-36.21-85.49-84.54 0-47.42 35.11-83.89 85.49-83.89z"/><path d="m364.78-63.69h26.94v278.95h-26.94z" transform="matrix(.01029726 -.99994698 .99994698 .01029726 298.56 453.24)"/><path d="m529.55 394.65h278.95v26.94h-278.95z" transform="matrix(.01029726 -.99994698 .99994698 .01029726 254.01 1072.89)"/><path d="m-69.47 388.45h278.95v26.94h-278.95z" transform="matrix(.01029726 -.99994698 .99994698 .01029726 -332.62 467.77)"/><path d="m362.44 581.67h26.94v278.95h-26.94z" transform="matrix(.01029726 -.99994698 .99994698 .01029726 -349.09 1089.58)"/></g></svg>