<svg viewBox="0 0 84.7 91.31" xmlns="http://www.w3.org/2000/svg"><path d="m68 72.88h4.51v7.12h1.86l3.81-7.12h4.82l-5 8.82 5.26 9.56h-5l-3.89-7.47h-1.86v7.47h-4.51z"/><path d="m18.21 51.41c0-3.3 0-6.61 0-9.91 0-.62-.11-1-.77-1.17s-1-.67-1-1.47c.05-2.87 0-5.74 0-8.62a1 1 0 0 1 .75-1.13q11.86-5 23.73-10a1.85 1.85 0 0 1 1.27 0c7.89 3.31 15.77 6.66 23.65 10a1.09 1.09 0 0 1 .81 1.18q-.06 4.4 0 8.78c0 .69-.21 1.08-.85 1.22s-.9.61-.9 1.34v19.74a1.14 1.14 0 0 1 -.82 1.24c-7.3 3.06-14.58 6.16-21.88 9.22a1.93 1.93 0 0 1 -1.34 0c-7.33-3.07-14.63-6.18-22-9.25a1.08 1.08 0 0 1 -.8-1.18c.17-3.33.15-6.66.15-9.99zm.79-10.41v.62 19.5c0 .6.32.76.76.94q10.59 4.49 21.2 9a1.93 1.93 0 0 0 1.34 0c7.08-3 14.14-6 21.21-8.94a1 1 0 0 0 .75-1.12c0-6.36 0-12.73 0-19.09 0-.25 0-.51 0-.84l-.91.36-21.01 8.8a1.76 1.76 0 0 1 -1.52 0c-5-2.16-10.12-4.29-15.18-6.43zm-1.31-11.24c.39.18.63.3.87.4q11.11 4.69 22.23 9.41a1.85 1.85 0 0 0 1.59 0c6.78-2.88 13.62-5.74 20.37-8.57l2.73-1.17c-.29-.14-.48-.24-.68-.32q-11.32-4.8-22.67-9.58a1.74 1.74 0 0 0 -1.19.05c-4.21 1.75-8.41 3.54-12.61 5.31zm48.2.71c-.37.14-.69.26-1 .4q-11.26 4.77-22.53 9.54a1.76 1.76 0 0 1 -1.52 0q-11.27-4.8-22.53-9.55l-1-.4v9c7.93 3.34 15.82 6.7 23.69 10.03a1.46 1.46 0 0 0 1.05 0c3.08-1.27 6.15-2.58 9.22-3.87l14.58-6.18z"/><path d="m41.57 72.71a2.47 2.47 0 0 1 -.92-.17l-12.42-5.23-9.53-4a1.82 1.82 0 0 1 -1.27-1.89c0-2.45 0-5 0-7.37 0-.87 0-1.74 0-2.61s0-1.71 0-2.56c0-2.41 0-4.9 0-7.36a1.53 1.53 0 0 0 0-.38h-.12a2 2 0 0 1 -1.6-2.23c0-3 0-6.05 0-8.6a1.79 1.79 0 0 1 1.22-1.84l10.38-4.47 13.36-5.6a2.57 2.57 0 0 1 1.87 0c4.44 1.86 9 3.76 13.31 5.61l10.34 4.36a1.84 1.84 0 0 1 1.28 1.9v8.76a1.77 1.77 0 0 1 -1.47 1.97c-.25.06-.29.07-.29.58v10.54 9.2a1.89 1.89 0 0 1 -1.3 2l-10.63 4.48c-3.67 1.55-7.46 3.15-11.19 4.71a2.69 2.69 0 0 1 -1.02.2zm-21.84-11.5.28.14 6.22 2.65 15 6.32a1.2 1.2 0 0 0 .75 0l12.12-5.1 9.09-3.84c.28-.11.28-.12.28-.4 0-4.73 0-9.53 0-14.18v-4.67l-3.31 1.4c-5.77 2.47-11.7 4.93-17.52 7.41a2.5 2.5 0 0 1 -2.12 0c-3.92-1.68-7.92-3.36-11.79-5l-3.39-1.44-5.6-2.36v4.15 14.83zm-1.66-22.3 2.93 1.26 20.31 8.62a.77.77 0 0 0 .47 0c2.58-1.06 5.19-2.17 7.72-3.24l1.5-.65 10.24-4.33 3.87-1.64v-7.33l-3.27 1.4c-6.29 2.66-12.79 5.41-19.18 8.13a2.56 2.56 0 0 1 -2.13 0c-6.25-2.66-12.62-5.36-18.78-8l-3.68-1.53zm1.55-9.13 4.38 1.86c5.59 2.36 11.37 4.81 17.05 7.23a1.09 1.09 0 0 0 1 0c5.19-2.21 10.47-4.44 15.57-6.6l4.81-2 1.11-.47-2.11-.9c-6.43-2.74-13.05-5.56-19.6-8.3a1 1 0 0 0 -.6 0c-3.38 1.41-6.81 2.86-10.13 4.26z"/><path d="m2.91 0h7.66c3.58 0 6 2.63 6 6.34s-2.42 6.39-6 6.39h-3.15v5.7h-4.51zm6.73 8.87a2.25 2.25 0 0 0 2.36-2.53 2.19 2.19 0 0 0 -2.28-2.47h-2.3v5z"/><path d="m73.7 1h4.74l6.26 18.38h-4.64l-1.13-3.87h-5.75l-1.11 3.87h-4.64zm4.17 11-1-3.58c-.34-1.16-.75-3.17-.75-3.17s-.41 2-.75 3.17l-1.13 3.48z"/><path d="m9.66 71.72a9.89 9.89 0 0 1 6.91 2.6l-2.09 3.4a7.52 7.52 0 0 0 -4.61-1.88c-3.68 0-5.21 2.6-5.21 5.26s1.65 5.54 5.21 5.54a7.29 7.29 0 0 0 4.9-2.27l2.32 3.3a10.05 10.05 0 0 1 -7.43 3.09c-5.92 0-9.66-4.1-9.66-9.56a9.28 9.28 0 0 1 9.66-9.48z"/><path d="m41.24-7.2h3.05v31.54h-3.05z" transform="matrix(.01029726 -.99994698 .99994698 .01029726 33.75 51.24)"/><path d="m59.87 44.62h31.54v3.05h-31.54z" transform="matrix(.01029726 -.99994698 .99994698 .01029726 28.72 121.3)"/><path d="m-7.85 43.92h31.54v3.05h-31.54z" transform="matrix(.01029726 -.99994698 .99994698 .01029726 -37.6 52.89)"/><path d="m40.98 65.76h3.05v31.54h-3.05z" transform="matrix(.01029726 -.99994698 .99994698 .01029726 -39.47 123.18)"/></svg>